<svg width="17" height="17" viewBox="0 0 17 17" fill="none" xmlns="http://www.w3.org/2000/svg">
        <path fill-rule="evenodd" clip-rule="evenodd"
            d="M3.69229 9.74291V16.3953C3.69229 16.7293 3.41685 17 3.07686 17H0.615432C0.275445 17 0 16.7293 0 16.3953V4.30009C0 4.04958 0.157144 3.82504 0.395223 3.73549C0.395223 3.73549 5.74875 1.71918 7.33925 1.12018C7.7646 0.959941 8.23529 0.959941 8.66065 1.12018C10.2511 1.71918 15.6048 3.73549 15.6048 3.73549C15.9219 3.85494 16.0807 4.20488 15.9591 4.5165C15.8376 4.82826 15.4815 4.98429 15.1644 4.86484C15.1644 4.86484 9.81072 2.84853 8.22023 2.24953C8.07845 2.19611 7.9216 2.19611 7.77981 2.24953L1.23072 4.71607V15.7905H2.46158V6.71917C2.46158 6.3852 2.73702 6.11436 3.07686 6.11436H12.923C13.2629 6.11436 13.5385 6.3852 13.5385 6.71917V15.7905H14.7692V6.71917C14.7692 6.38534 15.0449 6.11436 15.3846 6.11436C15.7242 6.11436 15.9999 6.38534 15.9999 6.71917V16.3953C15.9999 16.7293 15.7244 17 15.3846 17H12.923C12.5832 17 12.3076 16.7293 12.3076 16.3953V9.74291H3.69229ZM12.3076 8.53344V7.32397H3.69229V8.53344H12.3076Z"
            fill="#ACD9B2" />
    </svg>